<?xml version="1.0" encoding="UTF-8"?>
<svg xmlns="http://www.w3.org/2000/svg" xmlns:xlink="http://www.w3.org/1999/xlink" width="375pt" height="374.999991pt" viewBox="0 0 375 374.999991" version="1.2">
<defs>
<clipPath id="clip1">
  <path d="M 119.277344 187 L 240 187 L 240 219.398438 L 119.277344 219.398438 Z M 119.277344 187 "/>
</clipPath>
<clipPath id="clip2">
  <path d="M 245 140 L 269.277344 140 L 269.277344 165 L 245 165 Z M 245 140 "/>
</clipPath>
</defs>
<g id="surface1">
<path style=" stroke:none;fill-rule:nonzero;fill:rgb(55.288696%,8.628845%,5.879211%);fill-opacity:1;" d="M 232.320312 125.40625 C 240.746094 141.484375 265.777344 149.589844 251.929688 156.914062 C 238.085938 164.242188 190.605469 168.019531 182.179688 151.941406 C 173.757812 135.859375 178.15625 116.882812 192 109.558594 C 205.847656 102.230469 223.898438 109.324219 232.320312 125.40625 Z M 232.320312 125.40625 "/>
<path style=" stroke:none;fill-rule:nonzero;fill:rgb(84.709167%,5.879211%,8.628845%);fill-opacity:1;" d="M 238.699219 174.34375 C 238.699219 202.203125 207.332031 216.226562 179.613281 216.226562 C 151.894531 216.226562 120.527344 203.121094 120.527344 175.261719 C 120.527344 147.398438 197.179688 82.164062 205.847656 121.144531 C 211.894531 148.335938 238.699219 146.480469 238.699219 174.34375 Z M 238.699219 174.34375 "/>
<path style=" stroke:none;fill-rule:nonzero;fill:rgb(75.689697%,6.669617%,7.058716%);fill-opacity:1;" d="M 213.59375 137.082031 C 214.25 141.824219 214.5625 146.511719 214.730469 151.375 C 214.902344 156.226562 215.121094 161.304688 213.761719 166.023438 C 210.621094 176.890625 199.269531 180.152344 189.195312 180.878906 C 183.753906 181.273438 178.296875 180.972656 172.851562 180.820312 C 166.148438 180.632812 159.449219 180.765625 152.75 180.367188 C 146.292969 179.984375 139.914062 179 133.492188 178.261719 C 129.164062 177.765625 124.824219 177.265625 120.550781 176.429688 C 121.414062 203.488281 152.285156 216.230469 179.613281 216.230469 C 207.332031 216.230469 238.699219 202.203125 238.699219 174.34375 C 238.699219 153.488281 223.683594 149.28125 213.59375 137.082031 Z M 213.59375 137.082031 "/>
<g clip-path="url(#clip1)" clip-rule="nonzero">
<path style=" stroke:none;fill-rule:nonzero;fill:rgb(84.309387%,81.17981%,81.568909%);fill-opacity:1;" d="M 229.054688 219.742188 L 130.171875 219.742188 C 124.199219 219.742188 119.3125 214.832031 119.3125 208.828125 L 119.3125 198.40625 C 119.3125 192.402344 124.199219 187.488281 130.171875 187.488281 L 229.054688 187.488281 C 235.027344 187.488281 239.914062 192.402344 239.914062 198.40625 L 239.914062 208.828125 C 239.914062 214.832031 235.027344 219.742188 229.054688 219.742188 Z M 229.054688 219.742188 "/>
<path style=" stroke:none;fill-rule:nonzero;fill:rgb(83.918762%,73.728943%,73.329163%);fill-opacity:1;" d="M 231.070312 187.6875 C 231.371094 188.683594 231.535156 189.734375 231.535156 190.824219 L 231.535156 201.246094 C 231.535156 207.25 226.648438 212.164062 220.675781 212.164062 L 121.792969 212.164062 C 121.105469 212.164062 120.429688 212.089844 119.777344 211.964844 C 121.128906 216.453125 125.285156 219.742188 130.171875 219.742188 L 229.054688 219.742188 C 235.027344 219.742188 239.914062 214.832031 239.914062 208.828125 L 239.914062 198.40625 C 239.914062 193.09375 236.089844 188.644531 231.070312 187.6875 Z M 231.070312 187.6875 "/>
</g>
<g clip-path="url(#clip2)" clip-rule="nonzero">
<path style=" stroke:none;fill-rule:nonzero;fill:rgb(83.918762%,73.728943%,73.329163%);fill-opacity:1;" d="M 269.242188 152.484375 C 269.242188 153.277344 269.164062 154.0625 269.011719 154.839844 C 268.859375 155.617188 268.628906 156.371094 268.328125 157.105469 C 268.027344 157.835938 267.65625 158.53125 267.21875 159.191406 C 266.777344 159.851562 266.28125 160.460938 265.722656 161.023438 C 265.164062 161.582031 264.558594 162.082031 263.902344 162.523438 C 263.246094 162.964844 262.554688 163.335938 261.824219 163.640625 C 261.097656 163.941406 260.34375 164.171875 259.570312 164.328125 C 258.796875 164.480469 258.015625 164.558594 257.226562 164.558594 C 256.4375 164.558594 255.65625 164.480469 254.882812 164.328125 C 254.109375 164.171875 253.359375 163.941406 252.628906 163.640625 C 251.902344 163.335938 251.207031 162.964844 250.550781 162.523438 C 249.894531 162.082031 249.289062 161.582031 248.730469 161.023438 C 248.175781 160.460938 247.675781 159.851562 247.238281 159.191406 C 246.800781 158.53125 246.429688 157.835938 246.128906 157.105469 C 245.824219 156.371094 245.597656 155.617188 245.445312 154.839844 C 245.289062 154.0625 245.210938 153.277344 245.210938 152.484375 C 245.210938 151.691406 245.289062 150.902344 245.445312 150.125 C 245.597656 149.347656 245.824219 148.59375 246.128906 147.859375 C 246.429688 147.128906 246.800781 146.433594 247.238281 145.773438 C 247.675781 145.113281 248.175781 144.503906 248.730469 143.941406 C 249.289062 143.382812 249.894531 142.882812 250.550781 142.441406 C 251.207031 142 251.902344 141.628906 252.628906 141.324219 C 253.359375 141.023438 254.109375 140.792969 254.882812 140.636719 C 255.65625 140.484375 256.4375 140.40625 257.226562 140.40625 C 258.015625 140.40625 258.796875 140.484375 259.570312 140.636719 C 260.34375 140.792969 261.097656 141.023438 261.824219 141.324219 C 262.554688 141.628906 263.246094 142 263.902344 142.441406 C 264.558594 142.882812 265.164062 143.382812 265.722656 143.941406 C 266.28125 144.503906 266.777344 145.113281 267.21875 145.773438 C 267.65625 146.433594 268.027344 147.128906 268.328125 147.859375 C 268.628906 148.59375 268.859375 149.347656 269.011719 150.125 C 269.164062 150.902344 269.242188 151.691406 269.242188 152.484375 Z M 269.242188 152.484375 "/>
</g>
<path style=" stroke:none;fill-rule:nonzero;fill:rgb(84.309387%,81.17981%,81.568909%);fill-opacity:1;" d="M 268.167969 150.730469 C 268.167969 151.339844 268.105469 151.945312 267.988281 152.546875 C 267.871094 153.144531 267.695312 153.726562 267.460938 154.292969 C 267.226562 154.855469 266.941406 155.394531 266.605469 155.902344 C 266.265625 156.410156 265.882812 156.878906 265.453125 157.3125 C 265.023438 157.746094 264.554688 158.128906 264.050781 158.46875 C 263.542969 158.808594 263.011719 159.097656 262.449219 159.332031 C 261.886719 159.5625 261.308594 159.742188 260.710938 159.859375 C 260.113281 159.980469 259.511719 160.039062 258.902344 160.039062 C 258.296875 160.039062 257.691406 159.980469 257.097656 159.859375 C 256.5 159.742188 255.921875 159.5625 255.359375 159.332031 C 254.796875 159.097656 254.261719 158.808594 253.757812 158.46875 C 253.25 158.128906 252.785156 157.746094 252.355469 157.3125 C 251.925781 156.878906 251.539062 156.410156 251.203125 155.902344 C 250.863281 155.394531 250.578125 154.855469 250.347656 154.292969 C 250.113281 153.726562 249.9375 153.144531 249.820312 152.546875 C 249.699219 151.945312 249.640625 151.339844 249.640625 150.730469 C 249.640625 150.117188 249.699219 149.511719 249.820312 148.914062 C 249.9375 148.3125 250.113281 147.730469 250.347656 147.164062 C 250.578125 146.601562 250.863281 146.0625 251.203125 145.554688 C 251.539062 145.046875 251.925781 144.578125 252.355469 144.144531 C 252.785156 143.714844 253.25 143.328125 253.757812 142.988281 C 254.261719 142.648438 254.796875 142.359375 255.359375 142.128906 C 255.921875 141.894531 256.5 141.714844 257.097656 141.597656 C 257.691406 141.476562 258.296875 141.417969 258.902344 141.417969 C 259.511719 141.417969 260.113281 141.476562 260.710938 141.597656 C 261.308594 141.714844 261.886719 141.894531 262.449219 142.128906 C 263.011719 142.359375 263.542969 142.648438 264.050781 142.988281 C 264.554688 143.328125 265.023438 143.714844 265.453125 144.144531 C 265.882812 144.578125 266.265625 145.046875 266.605469 145.554688 C 266.941406 146.0625 267.226562 146.601562 267.460938 147.164062 C 267.695312 147.730469 267.871094 148.3125 267.988281 148.914062 C 268.105469 149.511719 268.167969 150.117188 268.167969 150.730469 Z M 268.167969 150.730469 "/>
</g>
</svg>
